<?xml version="1.0" encoding="iso-8859-1"?>
<!-- Generator: Adobe Illustrator 22.1.0, SVG Export Plug-In . SVG Version: 6.00 Build 0)  -->
<svg xmlns="http://www.w3.org/2000/svg" xmlns:xlink="http://www.w3.org/1999/xlink" version="1.1" id="Layer_1_1_" x="0px" y="0px" viewBox="0 0 64 64" style="enable-background:new 0 0 64 64;" xml:space="preserve" width="512" height="512">
<g>
	<g>
		<circle style="fill:#FCD770;" cx="46" cy="42" r="4"/>
		<circle style="fill:#FCD770;" cx="38" cy="42" r="4"/>
		<circle style="fill:#FF826E;" cx="18" cy="42" r="4"/>
		<circle style="fill:#FF826E;" cx="26" cy="42" r="4"/>
		<path style="fill:#838F9B;" d="M62,58v4H45c-1.96-1.3-4.25-2-6.61-2H25.61c-2.36,0-4.65,0.7-6.61,2H2v-4c0-2.21,1.79-4,4-4h4h44h4    C60.21,54,62,55.79,62,58z"/>
		<path style="fill:#CF9E76;" d="M58,3v51h-4V42V28V14V3c0-0.55,0.45-1,1-1h2C57.55,2,58,2.45,58,3z"/>
		<circle style="fill:#FF826E;" cx="46" cy="28" r="4"/>
		<circle style="fill:#FCD770;" cx="44" cy="14" r="4"/>
		<circle style="fill:#FF826E;" cx="38" cy="28" r="4"/>
		<circle style="fill:#FF826E;" cx="28" cy="14" r="4"/>
		<circle style="fill:#FCD770;" cx="22" cy="28" r="4"/>
		<circle style="fill:#FF826E;" cx="20" cy="14" r="4"/>
		<path style="fill:#CF9E76;" d="M10,42v12H6V3c0-0.55,0.45-1,1-1h2c0.55,0,1,0.45,1,1v11v14V42z"/>
	</g>
	<path d="M59,53.101V3c0-1.103-0.897-2-2-2h-2c-1.103,0-2,0.897-2,2v10h-4.101C48.434,10.721,46.414,9,44,9s-4.434,1.721-4.899,4   h-6.202C32.434,10.721,30.414,9,28,9c-1.641,0-3.088,0.806-4,2.031C23.088,9.806,21.641,9,20,9c-2.414,0-4.434,1.721-4.899,4H11V3   c0-1.103-0.897-2-2-2H7C5.897,1,5,1.897,5,3v50.101C2.721,53.566,1,55.586,1,58v5h18.303l0.252-0.168   C21.353,61.634,23.445,61,25.605,61h12.789c2.16,0,4.252,0.634,6.051,1.832L44.697,63H63v-5C63,55.586,61.279,53.566,59,53.101z    M57,3v50h-2V3H57z M17.101,29c0.465,2.279,2.484,4,4.899,4s4.434-1.721,4.899-4h6.202c0.465,2.279,2.484,4,4.899,4   c1.641,0,3.088-0.806,4-2.031C42.912,32.194,44.359,33,46,33c2.414,0,4.434-1.721,4.899-4H53v12h-2.101   c-0.465-2.279-2.484-4-4.899-4c-1.641,0-3.088,0.806-4,2.031C41.088,37.806,39.641,37,38,37c-2.414,0-4.434,1.721-4.899,4h-2.202   c-0.465-2.279-2.484-4-4.899-4c-1.641,0-3.088,0.806-4,2.031C21.088,37.806,19.641,37,18,37c-2.414,0-4.434,1.721-4.899,4H11V29   H17.101z M19,28c0-1.654,1.346-3,3-3s3,1.346,3,3s-1.346,3-3,3S19,29.654,19,28z M35,28c0-1.654,1.346-3,3-3s3,1.346,3,3   s-1.346,3-3,3S35,29.654,35,28z M43,28c0-1.654,1.346-3,3-3s3,1.346,3,3s-1.346,3-3,3S43,29.654,43,28z M49,42c0,1.654-1.346,3-3,3   s-3-1.346-3-3s1.346-3,3-3S49,40.346,49,42z M41,42c0,1.654-1.346,3-3,3s-3-1.346-3-3s1.346-3,3-3S41,40.346,41,42z M29,42   c0,1.654-1.346,3-3,3s-3-1.346-3-3s1.346-3,3-3S29,40.346,29,42z M21,42c0,1.654-1.346,3-3,3s-3-1.346-3-3s1.346-3,3-3   S21,40.346,21,42z M13.101,43c0.465,2.279,2.484,4,4.899,4c1.641,0,3.088-0.806,4-2.031C22.912,46.194,24.359,47,26,47   c2.414,0,4.434-1.721,4.899-4h2.202c0.465,2.279,2.484,4,4.899,4c1.641,0,3.088-0.806,4-2.031C42.912,46.194,44.359,47,46,47   c2.414,0,4.434-1.721,4.899-4H53v10H11V43H13.101z M44,11c1.654,0,3,1.346,3,3s-1.346,3-3,3s-3-1.346-3-3S42.346,11,44,11z M28,11   c1.654,0,3,1.346,3,3s-1.346,3-3,3s-3-1.346-3-3S26.346,11,28,11z M20,11c1.654,0,3,1.346,3,3s-1.346,3-3,3s-3-1.346-3-3   S18.346,11,20,11z M15.101,15c0.465,2.279,2.484,4,4.899,4c1.641,0,3.088-0.806,4-2.031C24.912,18.194,26.359,19,28,19   c2.414,0,4.434-1.721,4.899-4h6.202c0.465,2.279,2.484,4,4.899,4s4.434-1.721,4.899-4H53v12h-2.101c-0.465-2.279-2.484-4-4.899-4   c-1.641,0-3.088,0.806-4,2.031C41.088,23.806,39.641,23,38,23c-2.414,0-4.434,1.721-4.899,4h-6.202c-0.465-2.279-2.484-4-4.899-4   s-4.434,1.721-4.899,4H11V15H15.101z M9,3v50H7V3H9z M61,61H45.296c-2.069-1.31-4.448-2-6.902-2H25.605   c-2.454,0-4.833,0.69-6.902,2H3v-3c0-1.654,1.346-3,3-3h52c1.654,0,3,1.346,3,3V61z"/>
</g>
</svg>
